# File created by Blade
# Date/Time:  Thu Jan 22 18:06:27 2015
# Frame Rate: 120.000 fps
#------------------------------------------------------
:FULLY-SPECIFIED
:DEGREES
1791
root 0.950308 32.961600 -2.227403 7.837517 18.519828 2.263605
RightUpLeg -24.022382 -3.085727 4.696573
RightLeg 91.841654 -0.000000 -0.000000
RightFoot 3.484223 8.380148 5.732454
RightToeBase -4.102077 -0.000000 0.000000
LeftUpLeg -1.254018 -8.452817 -9.111521
LeftLeg 0.056262 -0.000000 -0.000000
LeftFoot -7.043290 -7.834610 -4.173248
LeftToeBase 9.781347 -0.000000 -0.000000
Spine -8.971084 -7.933498 -0.913146
RightShoulder -18.976082 -20.249452 -22.168449
RightArm 14.445836 27.997360 52.839697
RightForeArm -8.578137 -0.000000 15.556337
RightHand 11.127010 0.000000 0.367699
RightHandThumb1 -24.326973 -0.000000 -32.862282
LeftShoulder -20.477042 1.709454 23.802078
LeftArm 32.570745 -22.245212 -62.199632
LeftForeArm 5.318934 -0.000000 53.426414
LeftHand 0.998495 0.000000 31.246675
LeftHandThumb1 -26.253704 0.000000 33.147579
Head 18.699517 4.046913 -3.286514
1792
root 0.946135 32.960209 -2.225325 7.842122 18.577507 2.290332
RightUpLeg -23.975618 -4.628993 5.136413
RightLeg 92.040311 -0.000000 -0.000000
RightFoot 4.017451 9.520765 6.980556
RightToeBase -4.841593 -0.000000 0.000000
LeftUpLeg -1.217795 -8.490901 -9.117842
LeftLeg -0.008891 -0.000000 0.000000
LeftFoot -7.008708 -7.864751 -4.203390
LeftToeBase 9.774829 -0.000000 -0.000000
Spine -8.971600 -7.888513 -1.010653
RightShoulder -18.973053 -20.304459 -22.157160
RightArm 14.449186 27.989398 52.837821
RightForeArm -8.503454 -0.000000 15.468978
RightHand 11.070166 -0.000000 0.620659
RightHandThumb1 -24.326973 -0.000000 -32.862282
LeftShoulder -20.503086 1.761251 23.768336
LeftArm 32.770575 -22.149737 -62.163348
LeftForeArm 5.285224 -0.000000 53.456425
LeftHand 0.974255 -0.000000 31.211547
LeftHandThumb1 -26.253704 0.000000 33.147579
Head 18.757332 4.065305 -3.314330
1793
root 0.942505 32.959057 -2.222587 7.843749 18.649191 2.304251
RightUpLeg -23.941703 -6.313821 5.609805
RightLeg 92.252868 -0.000000 -0.000000
RightFoot 4.623188 10.519776 8.710413
RightToeBase -5.160378 -0.000000 0.000000
LeftUpLeg -1.181241 -8.550869 -9.120308
LeftLeg -0.069263 -0.000000 0.000000
LeftFoot -6.973555 -7.872668 -4.402055
LeftToeBase 9.976035 -0.000000 -0.000000
Spine -8.985348 -7.856911 -1.079967
RightShoulder -18.964429 -20.372630 -22.163465
RightArm 14.489102 28.084337 52.889027
RightForeArm -8.614415 -0.000000 15.381784
RightHand 11.051878 -0.000000 0.635370
RightHandThumb1 -24.326973 -0.000000 -32.862282
LeftShoulder -20.556916 1.832262 23.706951
LeftArm 33.037115 -22.048097 -62.145844
LeftForeArm 5.246027 -0.000000 53.422150
LeftHand 1.048952 -0.000000 31.157092
LeftHandThumb1 -26.253704 0.000000 33.147579
Head 18.840125 4.122985 -3.373743
1794
root 0.938533 32.958087 -2.221585 7.868607 18.719304 2.330987
RightUpLeg -23.920702 -8.042748 6.060694
RightLeg 92.458443 -0.000000 -0.000000
RightFoot 5.358376 11.586719 10.721079
RightToeBase -5.863304 -0.000000 0.000000
LeftUpLeg -1.179346 -8.585633 -9.107603
LeftLeg -0.113220 -0.000000 0.000000
LeftFoot -6.895194 -8.018689 -4.422717
LeftToeBase 9.785198 -0.000000 -0.000000
Spine -9.027935 -7.815024 -1.163297
RightShoulder -18.954018 -20.400045 -22.179003
RightArm 14.478211 28.063108 52.872656
RightForeArm -8.626605 -0.000000 15.285322
RightHand 10.989299 -0.000000 0.561590
RightHandThumb1 -24.326973 -0.000000 -32.862282
LeftShoulder -20.573572 1.841509 23.682541
LeftArm 33.219603 -21.914955 -62.094603
LeftForeArm 5.209018 0.000000 53.372730
LeftHand 1.035637 -0.000000 31.242541
LeftHandThumb1 -26.253704 0.000000 33.147579
Head 18.949775 4.138177 -3.438155
